<svg width="750" height="424" viewBox="0 0 750 424" fill="none" xmlns="http://www.w3.org/2000/svg">
<path d="M77.7813 26.4415L13.6259 18H-8.99968C-22.5911 18 -33.4705 29.2758 -32.9843 42.8585L-26.674 219.154C-26.2234 231.743 -16.1167 241.841 -3.52757 242.281L391.09 256.073C405.292 256.569 416.813 244.685 415.876 230.506L406.68 91.247C405.397 71.8239 382.742 61.9269 367.62 74.1837L356.126 83.5L306.411 122.748C301.724 126.449 295.824 128.269 289.866 127.853L234.622 123.992C215.775 122.674 197.315 118.009 180.105 110.214L128.241 86.7226C123.617 84.6283 119.776 81.1218 117.271 76.7072L95.5229 38.3899C91.8089 31.8462 85.2411 27.4231 77.7813 26.4415Z" fill="url(#paint0_linear_589_572)" fill-opacity="0.3"/>
<path d="M83.7813 9.4415L19.6259 1H-2.99968C-16.5911 1 -27.4705 12.2758 -26.9843 25.8585L-20.674 202.154C-20.2234 214.743 -10.1167 224.841 2.47243 225.281L397.09 239.073C411.292 239.569 422.813 227.685 421.876 213.506L412.68 74.247C411.397 54.8239 388.742 44.9269 373.62 57.1837L362.126 66.5L312.411 105.748C307.724 109.449 301.824 111.269 295.866 110.853L240.622 106.992C221.775 105.674 203.315 101.009 186.105 93.2143L134.241 69.7226C129.617 67.6283 125.776 64.1218 123.271 59.7072L101.523 21.3899C97.8089 14.8462 91.2411 10.4231 83.7813 9.4415Z" fill="url(#paint1_linear_589_572)" fill-opacity="0.3"/>
<path d="M77.7813 26.4415L13.6259 18H-8.99968C-22.5911 18 -33.4705 29.2758 -32.9843 42.8585L-26.674 219.154C-26.2234 231.743 -16.1167 241.841 -3.52757 242.281L391.09 256.073C405.292 256.569 416.813 244.685 415.876 230.506L406.68 91.247C405.397 71.8239 382.742 61.9269 367.62 74.1837L356.126 83.5L306.411 122.748C301.724 126.449 295.824 128.269 289.866 127.853L234.622 123.992C215.775 122.674 197.315 118.009 180.105 110.214L128.241 86.7226C123.617 84.6283 119.776 81.1218 117.271 76.7072L95.5229 38.3899C91.8089 31.8462 85.2411 27.4231 77.7813 26.4415Z" stroke="#C8A5EF"/>
<path d="M83.7813 9.4415L19.6259 1H-2.99968C-16.5911 1 -27.4705 12.2758 -26.9843 25.8585L-20.674 202.154C-20.2234 214.743 -10.1167 224.841 2.47243 225.281L397.09 239.073C411.292 239.569 422.813 227.685 421.876 213.506L412.68 74.247C411.397 54.8239 388.742 44.9269 373.62 57.1837L362.126 66.5L312.411 105.748C307.724 109.449 301.824 111.269 295.866 110.853L240.622 106.992C221.775 105.674 203.315 101.009 186.105 93.2143L134.241 69.7226C129.617 67.6283 125.776 64.1218 123.271 59.7072L101.523 21.3899C97.8089 14.8462 91.2411 10.4231 83.7813 9.4415Z" stroke="#C8A5EF"/>
<defs>
<linearGradient id="paint0_linear_589_572" x1="194.465" y1="1" x2="194.465" y2="256.088" gradientUnits="userSpaceOnUse">
<stop offset="0.378209" stop-color="#934EE0"/>
<stop offset="0.708766" stop-color="#E8129F"/>
</linearGradient>
<linearGradient id="paint1_linear_589_572" x1="197.876" y1="1" x2="197.876" y2="240" gradientUnits="userSpaceOnUse">
<stop offset="0.378209" stop-color="#934EE0" stop-opacity="0.14"/>
<stop offset="0.708766" stop-color="#E8129F"/>
</linearGradient>
</defs>
</svg>

